<svg width="580" height="487" viewBox="0 0 580 487" fill="none" xmlns="http://www.w3.org/2000/svg">
<mask id="mask0_204_10741" style="mask-type:alpha" maskUnits="userSpaceOnUse" x="0" y="0" width="580" height="487">
<rect width="580" height="487" transform="matrix(-1 0 0 1 580 0)" fill="#8A3C41"/>
</mask>
<g mask="url(#mask0_204_10741)">
<rect width="820" height="2" transform="matrix(-0.821552 -0.570134 -0.570134 0.821552 833.402 157.714)" fill="#424B5A"/>
<rect width="820" height="2" transform="matrix(-0.821552 -0.570134 -0.570134 0.821552 827.701 165.929)" fill="#424B5A"/>
<rect width="820" height="2" transform="matrix(-0.821552 -0.570134 -0.570134 0.821552 822 174.145)" fill="#424B5A"/>
<rect width="820" height="2" transform="matrix(-0.821552 -0.570134 -0.570134 0.821552 816.297 182.36)" fill="#424B5A"/>
<rect width="820" height="2" transform="matrix(-0.821552 -0.570134 -0.570134 0.821552 810.596 190.576)" fill="#424B5A"/>
<rect width="820" height="2" transform="matrix(-0.821552 -0.570134 -0.570134 0.821552 804.895 198.792)" fill="#424B5A"/>
<rect width="820" height="2" transform="matrix(-0.821552 -0.570134 -0.570134 0.821552 799.193 207.007)" fill="#424B5A"/>
<rect width="820" height="2" transform="matrix(-0.821552 -0.570134 -0.570134 0.821552 793.492 215.223)" fill="#424B5A"/>
<rect width="820" height="2" transform="matrix(-0.821552 -0.570134 -0.570134 0.821552 787.791 223.438)" fill="#424B5A"/>
<rect width="820" height="2" transform="matrix(-0.821552 -0.570134 -0.570134 0.821552 782.09 231.653)" fill="#424B5A"/>
<rect width="820" height="2" transform="matrix(-0.821552 -0.570134 -0.570134 0.821552 776.389 239.869)" fill="#424B5A"/>
<rect width="820" height="2" transform="matrix(-0.821552 -0.570134 -0.570134 0.821552 770.688 248.084)" fill="#424B5A"/>
<rect width="820" height="2" transform="matrix(-0.821552 -0.570134 -0.570134 0.821552 764.986 256.3)" fill="#424B5A"/>
<rect width="820" height="2" transform="matrix(-0.821552 -0.570134 -0.570134 0.821552 759.285 264.516)" fill="#424B5A"/>
<rect width="820" height="2" transform="matrix(-0.821552 -0.570134 -0.570134 0.821552 753.584 272.731)" fill="#424B5A"/>
<rect width="820" height="2" transform="matrix(-0.821552 -0.570134 -0.570134 0.821552 747.881 280.947)" fill="#424B5A"/>
<rect width="820" height="2" transform="matrix(-0.821552 -0.570134 -0.570134 0.821552 742.18 289.162)" fill="#424B5A"/>
<rect width="820" height="2" transform="matrix(-0.821552 -0.570134 -0.570134 0.821552 736.479 297.377)" fill="#424B5A"/>
<rect width="820" height="2" transform="matrix(-0.821552 -0.570134 -0.570134 0.821552 730.777 305.593)" fill="#424B5A"/>
<rect width="820" height="2" transform="matrix(-0.821552 -0.570134 -0.570134 0.821552 725.076 313.809)" fill="#424B5A"/>
<rect width="820" height="2" transform="matrix(-0.821552 -0.570134 -0.570134 0.821552 719.375 322.024)" fill="#424B5A"/>
<rect width="820" height="2" transform="matrix(-0.821552 -0.570134 -0.570134 0.821552 713.674 330.24)" fill="#424B5A"/>
<rect width="820" height="2" transform="matrix(-0.821552 -0.570134 -0.570134 0.821552 707.973 338.455)" fill="#424B5A"/>
<rect width="820" height="2" transform="matrix(-0.821552 -0.570134 -0.570134 0.821552 702.271 346.671)" fill="#424B5A"/>
<rect width="820" height="2" transform="matrix(-0.821552 -0.570134 -0.570134 0.821552 696.57 354.886)" fill="#424B5A"/>
<rect width="820" height="2" transform="matrix(-0.821552 -0.570134 -0.570134 0.821552 690.869 363.102)" fill="#424B5A"/>
<rect width="820" height="2" transform="matrix(-0.821552 -0.570134 -0.570134 0.821552 685.166 371.317)" fill="#424B5A"/>
<rect width="820" height="2" transform="matrix(-0.821552 -0.570134 -0.570134 0.821552 679.465 379.533)" fill="#424B5A"/>
<rect width="820" height="2" transform="matrix(-0.821552 -0.570134 -0.570134 0.821552 673.764 387.748)" fill="#424B5A"/>
<rect width="820" height="2" transform="matrix(-0.821552 -0.570134 -0.570134 0.821552 668.062 395.964)" fill="#424B5A"/>
<rect width="820" height="2" transform="matrix(-0.821552 -0.570134 -0.570134 0.821552 662.361 404.179)" fill="#424B5A"/>
<rect width="820" height="2" transform="matrix(-0.821552 -0.570134 -0.570134 0.821552 656.66 412.395)" fill="#424B5A"/>
<rect width="820" height="2" transform="matrix(-0.821552 -0.570134 -0.570134 0.821552 650.959 420.61)" fill="#424B5A"/>
<rect width="820" height="2" transform="matrix(-0.821552 -0.570134 -0.570134 0.821552 645.258 428.826)" fill="#424B5A"/>
<rect width="820" height="2" transform="matrix(-0.821552 -0.570134 -0.570134 0.821552 639.557 437.042)" fill="#424B5A"/>
<rect width="820" height="2" transform="matrix(-0.821552 -0.570134 -0.570134 0.821552 633.855 445.257)" fill="#424B5A"/>
<rect width="820" height="2" transform="matrix(-0.821552 -0.570134 -0.570134 0.821552 628.154 453.472)" fill="#424B5A"/>
<rect width="820" height="2" transform="matrix(-0.821552 -0.570134 -0.570134 0.821552 622.453 461.688)" fill="#424B5A"/>
<rect width="820" height="2" transform="matrix(-0.821552 -0.570134 -0.570134 0.821552 616.75 469.903)" fill="#424B5A"/>
<rect width="820" height="2" transform="matrix(-0.821552 -0.570134 -0.570134 0.821552 611.049 478.119)" fill="#424B5A"/>
<rect width="820" height="2" transform="matrix(-0.821552 -0.570134 -0.570134 0.821552 605.348 486.334)" fill="#424B5A"/>
<rect width="820" height="2" transform="matrix(-0.821552 -0.570134 -0.570134 0.821552 599.646 494.55)" fill="#424B5A"/>
<rect width="820" height="2" transform="matrix(-0.821552 -0.570134 -0.570134 0.821552 593.945 502.766)" fill="#424B5A"/>
<rect width="820" height="2" transform="matrix(-0.821552 -0.570134 -0.570134 0.821552 588.244 510.981)" fill="#424B5A"/>
<rect width="820" height="2" transform="matrix(-0.821552 -0.570134 -0.570134 0.821552 582.543 519.196)" fill="#424B5A"/>
<rect width="820" height="2" transform="matrix(-0.821552 -0.570134 -0.570134 0.821552 576.842 527.412)" fill="#424B5A"/>
<rect width="820" height="2" transform="matrix(-0.821552 -0.570134 -0.570134 0.821552 571.141 535.627)" fill="#424B5A"/>
<rect width="820" height="2" transform="matrix(-0.821552 -0.570134 -0.570134 0.821552 565.439 543.843)" fill="#424B5A"/>
<rect width="820" height="2" transform="matrix(-0.821552 -0.570134 -0.570134 0.821552 559.738 552.059)" fill="#424B5A"/>
<rect width="820" height="2" transform="matrix(-0.821552 -0.570134 -0.570134 0.821552 554.035 560.274)" fill="#424B5A"/>
<rect width="820" height="2" transform="matrix(-0.821552 -0.570134 -0.570134 0.821552 548.334 568.49)" fill="#424B5A"/>
<rect width="820" height="2" transform="matrix(-0.821552 -0.570134 -0.570134 0.821552 542.633 576.705)" fill="#424B5A"/>
<rect width="820" height="2" transform="matrix(-0.821552 -0.570134 -0.570134 0.821552 536.932 584.92)" fill="#424B5A"/>
<rect width="820" height="2" transform="matrix(-0.821552 -0.570134 -0.570134 0.821552 531.23 593.137)" fill="#424B5A"/>
<rect width="820" height="2" transform="matrix(-0.821552 -0.570134 -0.570134 0.821552 525.529 601.352)" fill="#424B5A"/>
<rect width="820" height="2" transform="matrix(-0.821552 -0.570134 -0.570134 0.821552 519.828 609.567)" fill="#424B5A"/>
<rect width="820" height="2" transform="matrix(-0.821552 -0.570134 -0.570134 0.821552 514.127 617.783)" fill="#424B5A"/>
<rect width="820" height="2" transform="matrix(-0.821552 -0.570134 -0.570134 0.821552 508.426 625.998)" fill="#424B5A"/>
<rect width="820" height="2" transform="matrix(-0.821552 -0.570134 -0.570134 0.821552 502.725 634.214)" fill="#424B5A"/>
<rect width="820" height="2" transform="matrix(-0.821552 -0.570134 -0.570134 0.821552 497.023 642.43)" fill="#424B5A"/>
<rect width="820" height="2" transform="matrix(-0.821552 -0.570134 -0.570134 0.821552 491.32 650.645)" fill="#424B5A"/>
<rect width="820" height="2" transform="matrix(-0.821552 -0.570134 -0.570134 0.821552 485.619 658.86)" fill="#424B5A"/>
<rect width="820" height="2" transform="matrix(-0.821552 -0.570134 -0.570134 0.821552 479.918 667.076)" fill="#424B5A"/>
<rect width="820" height="2" transform="matrix(-0.821552 -0.570134 -0.570134 0.821552 474.217 675.292)" fill="#424B5A"/>
<rect width="820" height="2" transform="matrix(-0.821552 -0.570134 -0.570134 0.821552 468.516 683.507)" fill="#424B5A"/>
<rect width="820" height="2" transform="matrix(-0.821552 -0.570134 -0.570134 0.821552 462.814 691.723)" fill="#424B5A"/>
<rect width="820" height="2" transform="matrix(-0.821552 -0.570134 -0.570134 0.821552 457.113 699.938)" fill="#424B5A"/>
<rect width="820" height="2" transform="matrix(-0.821552 -0.570134 -0.570134 0.821552 451.412 708.154)" fill="#424B5A"/>
</g>
</svg>
