<svg width="100" height="52" viewBox="0 0 100 52" fill="none" xmlns="http://www.w3.org/2000/svg">
<path d="M37.9888 7.38835C37.9888 5.37705 38.0114 3.34315 37.9888 1.33185C37.9888 0.857276 38.1244 0.721681 38.5763 0.74428C39.0509 0.766879 39.5481 0.812075 40.0227 0.72168C43.8193 0.72168 47.6159 0.72168 51.4351 0.72168C55.8193 0.72168 60.2261 0.721681 64.6102 0.74428C64.678 0.857274 64.8136 0.970267 64.8136 1.06066C64.6102 3.02676 64.7684 5.01547 64.7458 7.00417C64.7458 7.50134 64.5876 7.61433 64.1131 7.61433C61.3786 7.59174 58.6441 7.59173 55.9323 7.59173C55.7289 7.59173 55.5255 7.61433 55.3221 7.61433C55.0735 7.61433 54.9379 7.70473 54.9605 7.97592C54.9605 8.04371 54.9605 8.13411 54.9605 8.20191C54.9605 12.6765 54.9605 17.1511 54.9605 21.6256C54.9605 21.7838 54.9831 21.9646 54.9831 22.1228C54.9831 24.2697 54.9605 26.4166 54.9605 28.5635C54.9605 30.8686 54.9831 33.1963 54.9831 35.5013C54.9605 35.5239 54.9605 35.5691 54.9831 35.5917C54.9605 36.0663 54.9605 36.5635 54.9379 37.0381C52.565 37.0381 50.1922 37.0607 47.8193 37.0607V37.0381C47.8193 27.6369 47.8193 18.2584 47.8193 8.85727C47.8193 7.59174 47.8193 7.59173 46.5311 7.59173C44.0905 7.59173 41.6272 7.61433 39.1865 7.59173C38.7571 7.59173 38.3278 7.68213 37.9888 7.38835Z" fill="#424B5A"/>
<path d="M72.1356 14.6427C71.6836 14.1681 71.2316 13.671 70.757 13.219C70.4858 12.9478 70.3955 12.6992 70.531 12.2924C71.435 9.76137 72.3164 7.20769 73.1977 4.65402C73.2203 4.56363 73.2429 4.47323 73.2655 4.38284C73.4237 3.99866 73.5593 3.59188 73.7175 3.20769C74.0565 2.37154 74.1921 1.46758 74.7118 0.699219C77.6045 0.699219 80.4971 0.699219 83.3672 0.699219C83.5706 0.925207 83.6384 1.21899 83.7288 1.49018C84.3842 3.34329 85.0395 5.1964 85.6949 7.0495C85.8983 7.63707 86.0791 8.22464 86.2825 8.83481C86.2599 8.90261 86.2825 8.94781 86.3503 8.97041C86.4632 9.26419 86.5084 9.58057 86.6892 9.85176C86.7118 9.87436 86.7118 9.91956 86.7344 9.94216C87.0056 10.7331 87.2316 11.5467 87.548 12.3376C87.661 12.654 87.6836 12.88 87.4124 13.106C85.6949 14.8461 83.9774 16.6088 82.2373 18.3715C81.9209 17.8066 81.8983 17.1738 81.5141 16.7218C81.5141 16.5862 81.4915 16.4506 81.4915 16.315C81.4689 16.1116 81.4011 15.9309 81.2881 15.7727V15.7501C81.2881 15.7049 81.2881 15.6823 81.2881 15.6371C80.6327 13.671 79.9774 11.7049 79.3446 9.73877C79.322 9.64837 79.2994 9.49018 79.1638 9.51278C78.9604 9.51278 78.8926 9.69357 78.8248 9.82917C78.6214 10.3715 78.4407 10.9139 78.2599 11.4563C77.8531 12.7444 77.3107 13.9874 77.0395 15.2981L76.9717 15.3207C76.5197 16.1342 76.339 17.0382 76.0452 17.9196C75.9096 18.3489 75.7966 18.3715 75.4802 18.0326C74.6892 17.1964 73.8757 16.4054 73.0621 15.5919L73.0395 15.5467H72.9943V15.5241H72.9717C72.9491 15.5015 72.9265 15.4563 72.9039 15.4337L72.8813 15.4111C72.8587 15.2981 72.7909 15.2529 72.6779 15.2077V15.1851H72.6553C72.6327 15.0721 72.5649 15.0269 72.4519 15.0043C72.3616 14.9139 72.2938 14.8009 72.2034 14.7105C72.1808 14.6879 72.1582 14.6653 72.1356 14.6427Z" fill="#424B5A"/>
<path d="M89.6498 18.3262C90.0114 19.0268 89.7176 19.5014 89.1526 19.9081C89.0622 19.9759 89.017 20.1115 88.9266 20.2019C87.6385 21.3771 86.4633 22.6652 85.2656 23.9081C84.904 24.1793 84.6328 24.5409 84.3616 24.8799C84.226 24.9929 84.0905 25.0833 83.9775 25.1963C82.6215 26.5974 81.2656 27.9985 79.8871 29.3997C79.6159 29.6709 79.3673 30.0776 79.0509 30.168C78.6667 30.281 78.4859 29.6935 78.1244 29.5579C77.5368 28.6991 76.7684 28.0211 76.0001 27.3206C75.9775 27.185 75.9097 27.072 75.7515 27.0494C75.6611 26.959 75.5933 26.8686 75.5029 26.7782C75.4803 26.7556 75.4577 26.733 75.4351 26.7104C75.4351 26.6878 75.4125 26.6652 75.3899 26.6652V26.62L75.3447 26.5974C75.3447 26.5748 75.3221 26.5522 75.2995 26.5522C75.2769 26.4618 75.2091 26.394 75.1187 26.3714C75.0283 26.281 74.9153 26.1906 74.8249 26.1002V26.055H74.7797C74.7797 26.0324 74.7797 26.0098 74.7345 26.0098C74.7119 25.9872 74.6893 25.9646 74.6667 25.942C74.6215 25.829 74.5537 25.7161 74.4181 25.6709C74.0114 25.2415 73.6272 24.8121 73.1978 24.3827C71.5029 22.6878 69.8984 20.8799 68.0905 19.2754C68.1808 18.507 68.565 17.8516 68.791 17.1285C68.8588 16.8573 69.017 16.6313 68.9718 16.3375C69.356 15.8178 69.4012 15.185 69.6498 14.62C69.7854 14.3036 69.921 14.3036 70.1469 14.4618C70.2373 14.6878 70.4407 14.8234 70.6215 15.0042C71.9549 16.3827 73.3108 17.7387 74.6441 19.1172L74.6667 19.1398C74.8249 19.411 75.0283 19.637 75.3221 19.7726L75.3447 19.7951C75.6385 20.2245 76.0001 20.6087 76.4294 20.9251C76.452 21.0607 76.5424 21.1059 76.6554 21.1511C76.678 21.2867 76.7458 21.3771 76.8814 21.3771C76.9266 21.4901 76.9944 21.5579 77.1074 21.6031C77.6498 22.2584 78.2599 22.846 78.8475 23.4336C78.9605 23.5466 79.0735 23.6144 79.2091 23.4562C79.6385 22.9816 80.0679 22.507 80.4746 22.0324C80.791 21.8291 81.017 21.5353 81.2656 21.2415H81.2882C81.3334 21.2415 81.356 21.2189 81.356 21.1963C81.4464 21.1059 81.6046 21.0833 81.582 20.9251C81.6046 20.9025 81.6272 20.8799 81.6046 20.8573C81.7176 20.7895 81.8532 20.7669 81.9436 20.6765C82.6667 19.863 83.5255 19.1624 84.1808 18.281C84.9718 17.6483 85.6272 16.8573 86.3277 16.1341C86.6667 15.7952 87.0961 15.524 87.2769 15.0268C87.3221 14.9816 87.3673 14.9364 87.4125 14.8912C87.5707 14.7782 87.7741 14.6878 87.8871 14.5296C88.1582 14.1906 88.2486 14.4392 88.3842 14.6426V14.6652C88.4746 15.0946 88.5876 15.5014 88.8136 15.8855C88.9944 16.7217 89.3334 17.5127 89.6498 18.3262Z" fill="#424B5A"/>
<path d="M11.8192 1.39974C12.5876 1.12855 13.3785 0.857366 14.1469 0.586179C14.3277 0.676575 14.4633 0.563585 14.6215 0.540986C15.7288 0.337596 16.8362 0.111605 17.9661 0.043808C20.0452 -0.0917852 22.1243 0.0890099 24.1582 0.563586C24.4068 0.608784 24.6328 0.744373 24.904 0.721774C25.9209 1.12855 26.9605 1.46754 27.9322 1.94211C29.5141 2.77827 30.983 3.75002 32.2712 4.99296C33.2655 5.94211 34.1243 6.98166 34.8249 8.1794C35.0056 8.47319 35.0056 8.63138 34.6441 8.81217C33.6271 9.37715 32.565 9.91952 31.6158 10.5975C31.1412 10.7783 30.7119 11.0721 30.3051 11.3658C30.2147 11.411 30.1469 11.4562 30.0565 11.5014C29.8983 11.5014 29.8079 11.5692 29.7175 11.7048C29.6271 11.75 29.5367 11.75 29.4689 11.8178C29.0621 12.1342 28.791 12.0664 28.5198 11.6144C28.2486 11.1625 27.9774 10.6879 27.5254 10.3941C27.1412 9.73873 26.5085 9.33195 25.9209 8.90257C25.4915 8.58618 25.1073 8.202 24.5198 8.1794C24.3842 7.95341 24.1356 7.88561 23.9096 7.81782C23.1638 7.56923 22.3955 7.36585 21.5819 7.23025C20.8814 7.11726 20.1808 6.95906 19.4576 7.04946C17.9209 7.02686 16.4068 7.09465 14.9831 7.70482C13.5367 8.1342 12.2938 8.90256 11.2316 9.96471C10.5311 10.5523 9.9661 11.2754 9.49153 12.0438C8.36158 13.8291 7.81921 15.7726 7.70622 17.8743C7.48023 21.6709 8.38418 25.0834 11.2542 27.7726C11.5932 28.1568 11.9774 28.4732 12.4294 28.6992C13.1073 29.3319 13.9435 29.6709 14.8023 29.9873C16.8362 30.7105 18.8927 30.9591 21.0395 30.6653C21.7401 30.6201 22.3955 30.4393 23.0508 30.1907C24.1808 29.9421 25.1977 29.4449 26.1017 28.7218C26.4407 28.541 26.7345 28.3376 26.9604 28.0212C27.1638 27.9308 27.322 27.7952 27.4124 27.5918C27.887 27.2528 28.1582 26.7331 28.452 26.2585C28.6328 25.9647 28.7232 25.4675 29.2655 25.8291C29.8531 26.2811 30.5085 26.6201 31.1638 26.9365C32.1582 27.6144 33.2429 28.1794 34.2825 28.767C34.3729 28.8574 34.4859 28.8348 34.5989 28.8122C34.6441 29.0608 35.1412 29.0608 34.9153 29.4449C34.5311 30.1003 34.1243 30.7105 33.6271 31.2754C32.9266 32.089 32.226 32.9026 31.3898 33.5805C31.3446 33.6257 31.2994 33.6483 31.2542 33.6935C31.1412 33.7161 31.0734 33.7839 31.0282 33.8969C30.3051 34.3941 29.5819 34.8687 28.8588 35.3658C28.8136 35.3884 28.7684 35.411 28.7232 35.4336C28.678 35.4562 28.6554 35.4562 28.6102 35.4788C28.4294 35.5014 28.2938 35.637 28.1356 35.7274C27.3446 36.1568 26.4859 36.428 25.6949 36.8122C25.1073 36.9704 24.4972 37.106 23.9322 37.2867C23.6384 37.3997 23.2542 37.2867 23.0282 37.5805C22.5085 37.6257 22.0113 37.6709 21.4915 37.7161C20.0452 37.7161 18.5763 37.7161 17.1299 37.7161C16.4746 37.5353 15.7966 37.6483 15.1186 37.5127C15.0057 37.4675 14.9379 37.3093 14.8023 37.3771C14.7119 37.3319 14.6441 37.2867 14.5537 37.2641C13.1073 36.9026 11.7062 36.4054 10.3729 35.7048C9.12995 35.0495 8 34.2133 6.89266 33.3545C6.82486 33.2189 6.73446 33.1512 6.59887 33.106L6.57627 33.1512L6.62147 33.1286C6.16949 32.654 5.69492 32.202 5.24294 31.7274L5.22034 31.7048C5.15254 31.5692 5.06215 31.4336 4.90396 31.3658C3.9322 30.1003 3.05085 28.7896 2.32768 27.3432C1.80791 26.2811 1.42373 25.1512 1.08475 24.0438C0.881357 23.3206 0.768364 22.5297 0.677968 21.7387C0.723166 21.6257 0.700568 21.5353 0.65537 21.4449C0.700568 21.106 0.610172 20.767 0.542376 20.428C0.542376 20.202 0.542374 19.976 0.519775 19.75C0.519775 19.2303 0.519775 18.7105 0.519775 18.1907C0.542374 17.6709 0.587572 17.1512 0.610171 16.6314C0.790962 15.8178 0.881358 14.9817 1.06215 14.1681C1.78531 10.7557 3.50283 7.93082 5.87571 5.42234C7.57062 3.68223 9.60452 2.39409 11.8192 1.39974Z" fill="#424B5A"/>
<path d="M95.0734 33.6933C95.2994 34.6198 95.661 35.5012 96 36.4051C96.226 37.0153 96.2034 37.0605 95.5706 37.0605C93.4237 37.0605 91.2768 37.0379 89.1299 37.0831C88.6101 37.0831 88.2938 36.9927 88.1582 36.4729C88 35.6368 87.5932 34.891 87.3672 34.0775C87.0282 32.9249 86.6214 31.8176 86.2373 30.6876C86.1921 30.552 86.0565 30.5746 85.9661 30.5746C84.2938 30.5746 82.644 30.5746 80.9717 30.5746C80.8587 30.5068 80.7231 30.4164 80.8813 30.2809C81.1073 30.0775 81.2881 29.8741 81.4915 29.6707C82.4181 28.7893 83.3446 27.9306 84.1582 26.9362C84.4972 26.6876 84.8135 26.3938 85.0621 26.0323C85.4011 25.8063 85.5819 25.4447 85.8531 25.1509C87.2768 23.908 88.5649 22.5294 89.8531 21.1735C90.3277 20.6763 90.4181 20.6763 90.6666 21.3317C90.983 22.1679 91.2768 22.9814 91.5932 23.8176V23.8402C91.6384 24.0888 91.6836 24.3599 91.8418 24.5633V24.5859C91.9096 24.8571 91.9322 25.1509 92.1356 25.3769C92.113 25.5125 92.1356 25.6255 92.2486 25.7385C92.339 26.4842 92.7909 27.117 92.9717 27.8176C93.0621 28.2018 93.1751 28.5859 93.3785 28.9475C93.6497 29.9193 93.9887 30.8684 94.3955 31.795C94.5762 32.4277 94.7796 33.0605 95.0734 33.6933Z" fill="#424B5A"/>
<path d="M74.7571 27.795C74.7797 27.908 74.8475 27.9758 74.9605 28.021V28.0436H74.9831C75.5932 28.699 76.226 29.3543 76.8362 29.9871C76.9491 30.1227 77.1751 30.2357 77.1073 30.4165C77.0395 30.5747 76.791 30.4617 76.6554 30.5295C75.1186 30.5295 73.6045 30.5069 72.0678 30.5069C71.7966 30.5069 71.6384 30.5973 71.6836 30.8911C71.4124 31.7272 71.1412 32.5408 70.8475 33.3769L70.8249 33.3995L70.8475 33.4221C70.7571 33.5351 70.6893 33.6481 70.7119 33.7837C70.6667 33.9645 70.5537 34.1227 70.5763 34.3261C70.5085 34.3939 70.4633 34.4617 70.4859 34.5521C70.3729 34.9137 70.2373 35.2752 70.1243 35.6368C70.0113 35.7272 70.0113 35.8402 70.0113 35.9758C69.8305 36.247 69.7627 36.5634 69.6949 36.8798C69.5367 37.038 69.3107 36.9928 69.1073 36.9928C66.8927 36.9928 64.7006 36.9928 62.4859 36.9928C62.0113 36.9928 61.8983 36.9024 62.0565 36.4278C62.5537 35.0493 63.0508 33.6933 63.5028 32.2922C64.2034 30.0775 65.1299 27.908 65.7853 25.6707C65.8079 25.6255 65.8305 25.5577 65.8531 25.5125C65.8983 25.4899 65.8983 25.4673 65.8983 25.4221C66.2599 24.5408 66.5763 23.6594 66.8023 22.7329C66.9605 22.3261 67.1186 21.9193 67.2542 21.5125C67.2768 21.4447 67.322 21.3769 67.3446 21.3091C67.5932 20.5634 67.5932 20.5634 68.1582 21.0832H68.1808C68.2486 21.1284 68.2938 21.1736 68.3616 21.2188C68.452 21.3317 68.5198 21.4221 68.6554 21.4673C69.6497 22.6425 70.8249 23.682 71.9096 24.7894C72.5876 25.5125 73.3107 26.1905 74.0113 26.9137C74.1921 27.343 74.4859 27.569 74.7571 27.795Z" fill="#424B5A"/>
<path d="M13.9661 18.6425C14.0339 18.5295 14.0339 18.4165 13.9887 18.3035C14.1243 17.6481 14.3276 17.0154 14.5762 16.4052C15.2542 15.2074 16.2937 14.4165 17.5141 13.8741C18.3954 13.6255 19.2994 13.6029 20.2034 13.6481C20.3163 13.7385 20.4293 13.7611 20.5649 13.7611C20.9039 13.8967 21.2203 14.0775 21.5819 14.0775C22.3502 14.6425 23.1412 15.1848 23.7062 15.9758C24.6779 17.7159 24.8135 19.5012 23.9548 21.3091C23.9322 21.3317 23.9322 21.3543 23.9322 21.3769C23.7966 21.5577 23.6158 21.7159 23.5706 21.9645H23.548V21.9871C23.0508 22.5069 22.5536 23.0266 21.9435 23.4108C20.8587 24.0888 19.6836 24.134 18.4632 24.0888C18.2373 24.2922 18.1017 24.021 17.9209 23.9984C17.6723 23.908 17.4011 23.8176 17.1525 23.7498C16.4067 23.456 15.8418 22.9363 15.2768 22.3939C14.5988 21.5351 14.2147 20.5634 13.9887 19.5238C13.9887 19.4334 13.9661 19.3656 13.9661 19.2752C14.0565 19.0719 13.9887 18.8459 13.9661 18.6425Z" fill="#424B5A"/>
<path d="M6.21469 47.6366C6.21469 49.9869 4.79096 51.2524 3.05085 51.2524C1.24294 51.2524 0 49.8513 0 47.7722C0 45.6027 1.33333 44.179 3.14124 44.179C5.01695 44.1564 6.21469 45.5801 6.21469 47.6366ZM0.926553 47.727C0.926553 49.1959 1.71751 50.5067 3.09604 50.5067C4.49717 50.5067 5.26554 49.2185 5.26554 47.6592C5.26554 46.3033 4.56497 44.8795 3.09604 44.8795C1.64972 44.8795 0.926553 46.2355 0.926553 47.727Z" fill="#424B5A"/>
<path d="M7.3446 44.2695H11.0056V45.0153H8.22596V47.2978H10.8022V48.0209H8.22596V51.117H7.3446V44.2695Z" fill="#424B5A"/>
<path d="M12.2712 44.2695H15.9323V45.0153H13.1526V47.2978H15.7289V48.0209H13.1526V51.117H12.2712V44.2695Z" fill="#424B5A"/>
<path d="M18.0791 44.2695V51.117H17.1978V44.2695H18.0791Z" fill="#424B5A"/>
<path d="M24.3615 50.9138C24.0451 51.072 23.3898 51.2302 22.5536 51.2302C20.6327 51.2302 19.209 50.0098 19.209 47.75C19.209 45.6031 20.6553 44.1567 22.757 44.1567C23.5932 44.1567 24.1355 44.3375 24.3615 44.4505L24.1355 45.1737C23.7966 45.0155 23.322 44.9025 22.757 44.9025C21.1525 44.9025 20.1129 45.9194 20.1129 47.7274C20.1129 49.3997 21.0621 50.4844 22.7118 50.4844C23.2542 50.4844 23.7966 50.3714 24.1581 50.2132L24.3615 50.9138Z" fill="#424B5A"/>
<path d="M28.9717 47.9078H26.3276V50.3937H29.2881V51.1394H25.4463V44.292H29.1299V45.0378H26.3276V47.2072H28.9717V47.9078Z" fill="#424B5A"/>
<path d="M32.5649 44.3599C33.1073 44.2695 33.7401 44.2017 34.4406 44.2017C35.7062 44.2017 36.6101 44.4954 37.1977 45.0604C37.8079 45.6254 38.1695 46.4164 38.1695 47.5237C38.1695 48.6536 37.8305 49.5576 37.1977 50.1904C36.5649 50.8231 35.5028 51.1847 34.1921 51.1847C33.5593 51.1847 33.0395 51.1621 32.5875 51.1169V44.3599H32.5649ZM33.4463 50.4163C33.6723 50.4615 33.9887 50.4615 34.3277 50.4615C36.2034 50.4615 37.2203 49.3994 37.2203 47.5463C37.2203 45.9192 36.3164 44.9022 34.4632 44.9022C34.0113 44.9022 33.6723 44.9474 33.4237 44.9926V50.4163H33.4463Z" fill="#424B5A"/>
<path d="M42.8023 47.9078H40.1582V50.3937H43.1187V51.1394H39.2769V44.292H42.9605V45.0378H40.1582V47.2072H42.8023V47.9078Z" fill="#424B5A"/>
<path d="M44.1356 50.0549C44.5197 50.3035 45.1073 50.5069 45.6949 50.5069C46.5988 50.5069 47.1186 50.0323 47.1186 49.3317C47.1186 48.699 46.757 48.3148 45.8305 47.9758C44.7231 47.569 44.0226 46.9815 44.0226 46.0323C44.0226 44.9702 44.9039 44.1792 46.2372 44.1792C46.9378 44.1792 47.435 44.3374 47.7288 44.5182L47.4802 45.2413C47.2542 45.1057 46.8022 44.925 46.192 44.925C45.2655 44.925 44.9039 45.4899 44.9039 45.9419C44.9039 46.5747 45.3107 46.8911 46.2598 47.2526C47.4124 47.7046 48 48.2696 48 49.2639C48 50.3261 47.2316 51.23 45.6271 51.23C44.9717 51.23 44.2485 51.0267 43.887 50.7781L44.1356 50.0549Z" fill="#424B5A"/>
<path d="M50.1243 44.2695V51.117H49.2429V44.2695H50.1243Z" fill="#424B5A"/>
<path d="M56.8362 50.8231C56.452 50.9813 55.6611 51.2073 54.7345 51.2073C53.695 51.2073 52.8588 50.9361 52.1808 50.3034C51.5933 49.7384 51.2317 48.8344 51.2317 47.7497C51.2317 45.7158 52.6328 44.2017 54.9153 44.2017C55.7063 44.2017 56.3164 44.3825 56.6102 44.518L56.3842 45.2412C56.0226 45.083 55.5707 44.9474 54.8701 44.9474C53.2204 44.9474 52.1356 45.987 52.1356 47.7045C52.1356 49.4446 53.1752 50.4615 54.7571 50.4615C55.3221 50.4615 55.7289 50.3712 55.9323 50.2808V48.2469H54.5989V47.5463H56.8362V50.8231Z" fill="#424B5A"/>
<path d="M58.1694 51.117V44.2695H59.1412L61.3107 47.7272C61.8079 48.5407 62.2146 49.2413 62.531 49.9644H62.5536C62.4632 49.0605 62.4632 48.2243 62.4632 47.1622V44.2921H63.2994V51.1396H62.3954L60.2259 47.6594C59.7514 46.891 59.2994 46.1 58.9604 45.3543H58.9378C58.983 46.213 59.0056 47.0492 59.0056 48.1791V51.117H58.1694Z" fill="#424B5A"/>
<path d="M71.209 51.1172C71.0056 50.9138 70.8474 50.733 70.5762 50.4392C69.9887 50.9816 69.3333 51.2302 68.5875 51.2302C67.2768 51.2302 66.4858 50.3262 66.4858 49.3093C66.4858 48.3827 67.0508 47.7274 67.8192 47.298V47.2754C67.4802 46.8234 67.2542 46.3262 67.2542 45.8517C67.2542 45.0155 67.8644 44.1567 68.9943 44.1567C69.8305 44.1567 70.5084 44.7217 70.5084 45.6031C70.5084 46.3262 70.0791 46.8912 69.0169 47.4336V47.4788C69.6045 48.1567 70.2373 48.9025 70.6666 49.3771C70.983 48.9025 71.1864 48.2471 71.322 47.3658H72.1356C71.9548 48.4505 71.661 49.2867 71.1638 49.8968C71.5254 50.281 71.887 50.6652 72.2937 51.1172H71.209ZM70.1469 49.9421C69.7401 49.4901 68.9943 48.6539 68.2259 47.7952C67.8644 48.0211 67.3446 48.4731 67.3446 49.1963C67.3446 49.9872 67.9096 50.5748 68.7231 50.5748C69.3333 50.5522 69.8305 50.3036 70.1469 49.9421ZM68.0678 45.7613C68.0678 46.2584 68.2937 46.62 68.5875 47.0042C69.2881 46.5974 69.7175 46.2358 69.7175 45.6709C69.7175 45.2415 69.4915 44.7895 68.9265 44.7895C68.3615 44.7669 68.0678 45.2415 68.0678 45.7613Z" fill="#424B5A"/>
<path d="M75.209 44.3599C75.5932 44.2695 76.2033 44.2017 76.8135 44.2017C77.6949 44.2017 78.2598 44.3599 78.6892 44.6988C79.0508 44.97 79.2542 45.3768 79.2542 45.9192C79.2542 46.5745 78.8248 47.1621 78.1016 47.4107V47.4333C78.757 47.5915 79.5028 48.1339 79.5028 49.1508C79.5028 49.7384 79.2768 50.1904 78.9152 50.5068C78.4406 50.9587 77.6723 51.1395 76.5649 51.1395C75.9547 51.1395 75.5028 51.0943 75.209 51.0717V44.3599ZM76.0903 47.1621H76.9039C77.8305 47.1621 78.3728 46.6649 78.3728 46.0096C78.3728 45.2186 77.7853 44.9022 76.8813 44.9022C76.4745 44.9022 76.2485 44.9248 76.0903 44.97V47.1621ZM76.0903 50.4389C76.2711 50.4841 76.5197 50.4842 76.8361 50.4842C77.7401 50.4842 78.5988 50.1452 78.5988 49.1508C78.5988 48.2243 77.8079 47.8175 76.8361 47.8175H76.1129V50.4389H76.0903Z" fill="#424B5A"/>
<path d="M81.5594 44.2697V48.3375C81.5594 49.8742 82.2373 50.507 83.1413 50.507C84.1356 50.507 84.791 49.829 84.791 48.3375V44.2697H85.6723V48.2697C85.6723 50.3714 84.565 51.2301 83.0961 51.2301C81.7175 51.2301 80.6554 50.4392 80.6554 48.2923V44.2471H81.5594V44.2697Z" fill="#424B5A"/>
<path d="M88.0903 44.2695V51.117H87.209V44.2695H88.0903Z" fill="#424B5A"/>
<path d="M89.6271 44.2695H90.5084V50.3712H93.4237V51.117H89.6271V44.2695Z" fill="#424B5A"/>
<path d="M94.3955 44.3599C94.9379 44.2695 95.5706 44.2017 96.2712 44.2017C97.5367 44.2017 98.4407 44.4954 99.0283 45.0604C99.6384 45.6254 100 46.4164 100 47.5237C100 48.6536 99.661 49.5576 99.0283 50.1904C98.3955 50.8231 97.3334 51.1847 96.0226 51.1847C95.3899 51.1847 94.8701 51.1621 94.4181 51.1169V44.3599H94.3955ZM95.2769 50.4163C95.5029 50.4615 95.8192 50.4615 96.1582 50.4615C98.0339 50.4615 99.0509 49.3994 99.0509 47.5463C99.0509 45.9192 98.1469 44.9022 96.2938 44.9022C95.8418 44.9022 95.5028 44.9474 95.2543 44.9926V50.4163H95.2769Z" fill="#424B5A"/>
</svg>
